<svg width="86" height="86" viewBox="0 0 86 86" fill="none" xmlns="http://www.w3.org/2000/svg">
<path d="M43.92 69.34C58.3568 69.34 70.06 57.6367 70.06 43.2C70.06 28.7633 58.3568 17.06 43.92 17.06C29.4833 17.06 17.78 28.7633 17.78 43.2C17.78 57.6367 29.4833 69.34 43.92 69.34Z" fill="#44454E" fill-opacity="0.1"/>
<path d="M43.4001 25.08C45.4311 24.604 47.5311 24.496 49.6001 24.76C44.5891 27.995 41.5541 33.566 41.5541 39.53C41.5541 48.435 48.3211 56.005 57.1701 57C54.3801 58.74 51.1561 59.663 47.8681 59.663C38.2231 59.663 30.2881 51.727 30.2881 42.083C30.2881 34.12 35.6981 27.104 43.4001 25.08Z" fill="#636573" fill-opacity="0.1"/>
<path d="M37.88 26.35C39.884 25.876 41.955 25.758 44 26C39.027 29.242 36.02 34.791 36.02 40.728C36.02 49.608 42.749 57.165 51.57 58.19C48.691 60.097 45.313 61.115 41.86 61.115C32.216 61.115 24.28 53.179 24.28 43.535C24.28 37.469 27.42 31.816 32.57 28.61C34.201 27.564 35.996 26.8 37.88 26.35Z" fill="#FDFCEA"/>
<path d="M55.6901 48.64C56.2391 48.64 56.6901 48.189 56.6901 47.64V44.18C56.6901 43.612 56.2231 43.145 55.6551 43.145C55.0871 43.145 54.6201 43.612 54.6201 44.18V47.64C54.6201 48.189 55.0711 48.64 55.6201 48.64H55.6901Z" fill="white"/>
<path d="M58.4399 45.88C58.4399 45.331 57.9889 44.88 57.4399 44.88H53.9999C53.4189 44.88 52.9399 45.359 52.9399 45.94C52.9399 46.521 53.4189 47 53.9999 47H57.4599C58.0089 47 58.4599 46.549 58.4599 46C58.4599 45.451 58.4399 46 58.4399 45.88Z" fill="white"/>
<path d="M22.8801 31.56C23.4291 31.56 23.8801 31.109 23.8801 30.56V27C23.8801 26.432 23.4131 25.965 22.8451 25.965C22.2771 25.965 21.8101 26.432 21.8101 27V30.46C21.8091 30.481 21.8081 30.501 21.8081 30.522C21.8081 31.048 22.2241 31.489 22.7501 31.52H22.8801V31.56Z" fill="white"/>
<path d="M25.63 28.8C25.63 28.251 25.179 27.8 24.63 27.8H21.14C20.572 27.8 20.105 28.267 20.105 28.835C20.105 29.403 20.572 29.87 21.14 29.87H24.6C25.149 29.87 25.6 29.419 25.6 28.87V28.8H25.63Z" fill="white"/>
<path d="M51.61 26.8C52.159 26.8 52.61 26.349 52.61 25.8V22.35C52.61 21.782 52.143 21.315 51.575 21.315C51.007 21.315 50.54 21.782 50.54 22.35V25.81C50.54 26.359 50.991 26.81 51.54 26.81L51.61 26.8Z" fill="white"/>
<path d="M54.37 24C54.37 23.451 53.919 23 53.37 23H49.88C49.312 23 48.845 23.467 48.845 24.035C48.845 24.603 49.312 25.07 49.88 25.07H53.34C53.889 25.07 54.34 24.619 54.34 24.07V24H54.37Z" fill="white"/>
</svg>
