<svg width="86" height="86" viewBox="0 0 86 86" fill="none" xmlns="http://www.w3.org/2000/svg">
<path opacity="0.51" d="M39.7999 62.9C52.4472 62.9 62.6999 52.6473 62.6999 40C62.6999 27.3527 52.4472 17.1 39.7999 17.1C27.1526 17.1 16.8999 27.3527 16.8999 40C16.8999 52.6473 27.1526 62.9 39.7999 62.9Z" fill="#EFEB60"/>
<path d="M39.8 57.5C49.465 57.5 57.3 49.665 57.3 40C57.3 30.335 49.465 22.5 39.8 22.5C30.1351 22.5 22.3 30.335 22.3 40C22.3 49.665 30.1351 57.5 39.8 57.5Z" fill="#F6B31A" stroke="#FEEA02" stroke-miterlimit="10"/>
<g opacity="0.3">
<path d="M68.9 45.6C64.6 38.6 55.4999 36.5 48.5999 40.7C45.0999 42.9 42.6 46.4 41.8 50.5C44.6 50.8 47 52.3 48.4 54.7L47.3 55.3C45.3 51.9 41.5 51.4 38.8 51.6C34.4 53.3 32.2 58.2 33.9 62.6C35.2 65.9 38.3 68.1 41.8 68.1H67.5999C73.8999 67.8 78.7 62.4 78.4 56.2C78.2 50.8 74.2 46.4 68.9 45.6Z" fill="#231F20"/>
<path d="M33.1 39.6C32.3 35.1 28.4 31.9 23.8 32C20.9 32 18.1 33.3 16.3 35.6C18.3 35.9 20.8 36.8 21.9 39.2L20.7 39.7C19.3 36.7 14.7 36.6 14 36.6C11.2 37.5 9.30005 40.1 9.30005 43.1C9.40005 47 12.6 50.1 16.5 50H33C35.9 50 38.2 47.7 38.3 44.9C38.3 42 36 39.7 33.1 39.6Z" fill="#231F20"/>
</g>
<path d="M66.3001 43C62.0001 36.1 52.9001 34 46.0001 38.3C42.6001 40.5 40.2001 43.9 39.4001 47.9C42.2001 48.2 44.6001 49.7 46.0001 52.1L44.9001 52.7C42.9001 49.3 39.1001 48.8 36.4001 49C32.0001 50.7 29.8001 55.6 31.5001 60C32.8001 63.3 35.9001 65.4 39.4001 65.5H65.1C71.4 65.2 76.2001 59.9 75.9001 53.6C75.6001 48.3 71.6001 43.8 66.3001 43Z" fill="#D8D9D8"/>
<path d="M30.5 37C29.7 32.5 25.8 29.3 21.2 29.4C18.3 29.4 15.5 30.7 13.7 33C15.7 33.3 18.2 34.2 19.3 36.6L18.1 37.1C16.7 34.1 12.1 34 11.4 34C8.59995 34.9 6.69995 37.5 6.69995 40.5C6.79995 44.4 9.99995 47.5 13.9 47.4H30.4C33.3 47.4 35.6 45.1 35.7 42.3C35.8 39.4 33.5 37 30.5 37Z" fill="#D8D9D8"/>
</svg>
