<svg width="86" height="86" viewBox="0 0 86 86" fill="none" xmlns="http://www.w3.org/2000/svg">
<path d="M16 23.9H57.8C58.6 23.9 59.3 24.6 59.3 25.4V27.7C59.3 28.5 58.6 29.2 57.8 29.2H16C15.2 29.2 14.5 28.5 14.5 27.7V25.4C14.5 24.6 15.1 23.9 16 23.9Z" fill="#BCBCBC"/>
<path d="M19.3999 37.7H61.1999C61.9999 37.7 62.6999 38.4 62.6999 39.2V41.5C62.6999 42.3 61.9999 43 61.1999 43H19.3999C18.5999 43 17.8999 42.3 17.8999 41.5V39.2C17.9999 38.4 18.5999 37.7 19.3999 37.7Z" fill="#BCBCBC"/>
<path d="M30.1001 30.9H71.9001C72.7001 30.9 73.4001 31.6 73.4001 32.4V34.7C73.4001 35.5 72.7001 36.2 71.9001 36.2H30.1001C29.3001 36.2 28.6001 35.5 28.6001 34.7V32.4C28.6001 31.5 29.3001 30.9 30.1001 30.9Z" fill="#BCBCBC"/>
<path d="M13.3 21.6H55.1C55.9 21.6 56.6 22.3 56.6 23.1V25.4C56.6 26.2 55.9 26.9 55.1 26.9H13.3C12.5 26.9 11.8 26.2 11.8 25.4V23.1C11.9 22.3 12.5 21.6 13.3 21.6Z" fill="#F4F4F4"/>
<path d="M16.8 35.4H58.6C59.4 35.4 60.1 36.1 60.1 36.9V39.2C60.1 40 59.4 40.7 58.6 40.7H16.8C16 40.7 15.3 40 15.3 39.2V36.9C15.3 36.1 16 35.4 16.8 35.4Z" fill="#F4F4F4"/>
<path d="M27.5 28.6H69.3C70.1 28.6 70.8 29.3 70.8 30.1V32.4C70.8 33.2 70.1 33.9 69.3 33.9H27.5C26.7 33.9 26 33.2 26 32.4V30C26 29.2 26.6 28.6 27.5 28.6Z" fill="#F4F4F4"/>
<path d="M16 45.8H57.8C58.6 45.8 59.3 46.5 59.3 47.3V49.6C59.3 50.4 58.6 51.1 57.8 51.1H16C15.2 51.1 14.5 50.4 14.5 49.6V47.3C14.5 46.4 15.1 45.8 16 45.8Z" fill="#BCBCBC"/>
<path d="M19.3999 59.5H61.1999C61.9999 59.5 62.6999 60.2 62.6999 61V63.3C62.6999 64.1 61.9999 64.8 61.1999 64.8H19.3999C18.5999 64.8 17.8999 64.1 17.8999 63.3V61C17.9999 60.2 18.5999 59.5 19.3999 59.5Z" fill="#BCBCBC"/>
<path d="M30.1001 52.7H71.9001C72.7001 52.7 73.4001 53.4 73.4001 54.2V56.5C73.4001 57.3 72.7001 58 71.9001 58H30.1001C29.3001 58 28.6001 57.3 28.6001 56.5V54.2C28.6001 53.4 29.3001 52.7 30.1001 52.7Z" fill="#BCBCBC"/>
<path d="M13.3 43.5H55.1C55.9 43.5 56.6 44.2 56.6 45V47.3C56.6 48.1 55.9 48.8 55.1 48.8H13.3C12.5 48.8 11.8 48.1 11.8 47.3V45C11.9 44.1 12.5 43.5 13.3 43.5Z" fill="#F4F4F4"/>
<path d="M16.8 57.2H58.6C59.4 57.2 60.1 57.9 60.1 58.7V61C60.1 61.8 59.4 62.5 58.6 62.5H16.8C16 62.5 15.3 61.8 15.3 61V58.7C15.3 57.9 16 57.2 16.8 57.2Z" fill="#F4F4F4"/>
<path d="M27.5 50.4H69.3C70.1 50.4 70.8 51.1 70.8 51.9V54.2C70.8 55 70.1 55.7 69.3 55.7H27.5C26.7 55.7 26 55 26 54.2V51.9C26 51.1 26.6 50.4 27.5 50.4Z" fill="#F4F4F4"/>
</svg>
