<svg width="86" height="86" viewBox="0 0 86 86" fill="none" xmlns="http://www.w3.org/2000/svg">
<path d="M68.9999 33.92C67.4325 31.4143 65.1495 29.4365 62.4461 28.2422C59.7426 27.0479 56.743 26.6922 53.8352 27.221C50.9274 27.7498 48.2451 29.1388 46.1352 31.2084C44.0252 33.2779 42.5847 35.9329 41.9999 38.83C43.354 38.9537 44.6597 39.3959 45.8102 40.1207C46.9608 40.8454 47.9235 41.832 48.6199 43L47.4799 43.64C45.4799 40.22 41.6599 39.79 39.0099 39.97C37.1586 40.6833 35.6143 42.0203 34.6434 43.7504C33.6724 45.4805 33.3356 47.4952 33.6912 49.447C34.0467 51.3988 35.0722 53.1654 36.5908 54.442C38.1095 55.7186 40.026 56.4252 42.0099 56.44H67.7199C70.51 56.2841 73.1451 55.1061 75.122 53.131C77.0988 51.1558 78.2791 48.5218 78.4374 45.7318C78.5957 42.9417 77.721 40.1911 75.9802 38.005C74.2394 35.8189 71.7545 34.3505 68.9999 33.88V33.92Z" fill="#919191"/>
<path d="M33.1999 28C32.8017 25.8321 31.6457 23.8764 29.9384 22.4823C28.231 21.0882 26.0837 20.3466 23.8799 20.39C22.4381 20.3852 21.0141 20.7076 19.715 21.3329C18.4158 21.9582 17.2755 22.8701 16.3799 24C18.3799 24.32 20.9099 25.21 22.0099 27.64L20.8199 28.18C19.4599 25.18 14.8199 25.08 14.1099 25.08C12.7548 25.5388 11.5753 26.4064 10.7336 27.5633C9.89187 28.7201 9.42944 30.1095 9.40991 31.54C9.44929 33.4161 10.2319 35.1998 11.5857 36.4992C12.9395 37.7987 14.7538 38.5075 16.6299 38.47H32.9999C34.3883 38.4925 35.7288 37.9626 36.7265 36.9968C37.7242 36.031 38.2974 34.7084 38.3199 33.32C38.3425 31.9316 37.8125 30.5911 36.8467 29.5934C35.8809 28.5957 34.5583 28.0225 33.1699 28H33.1999Z" fill="#919191"/>
<path opacity="0.8" d="M72.75 69.02C77.3339 69.02 81.05 65.304 81.05 60.72C81.05 56.1361 77.3339 52.42 72.75 52.42C68.166 52.42 64.45 56.1361 64.45 60.72C64.45 65.304 68.166 69.02 72.75 69.02Z" fill="white"/>
<path d="M78.7299 63.3899L74.1999 60.7699L78.7299 58.1499C78.8185 58.1073 78.8977 58.0475 78.963 57.9739C79.0282 57.9003 79.0781 57.8144 79.1097 57.7213C79.1414 57.6282 79.1542 57.5297 79.1473 57.4316C79.1405 57.3335 79.1142 57.2378 79.0699 57.1499C79.0282 57.0605 78.969 56.9802 78.8958 56.914C78.8226 56.8477 78.7368 56.7968 78.6437 56.7642C78.5505 56.7316 78.4517 56.7179 78.3532 56.7241C78.2546 56.7302 78.1583 56.756 78.0699 56.7999L73.4999 59.3899V54.1699C73.4999 53.9763 73.423 53.7907 73.2861 53.6538C73.1492 53.5169 72.9635 53.4399 72.7699 53.4399C72.5763 53.4399 72.3906 53.5169 72.2537 53.6538C72.1168 53.7907 72.0399 53.9763 72.0399 54.1699V59.3899L67.5099 56.7699C67.4199 56.7254 67.3217 56.7 67.2214 56.6952C67.1211 56.6904 67.0209 56.7063 66.927 56.7419C66.8332 56.7776 66.7477 56.8322 66.6759 56.9025C66.6041 56.9727 66.5476 57.0569 66.5099 57.1499C66.4421 57.3018 66.429 57.4724 66.4728 57.6328C66.5165 57.7932 66.6144 57.9335 66.7499 58.0299L71.2699 60.6999L66.7399 63.3899C66.5869 63.502 66.4843 63.6698 66.4544 63.8571C66.4244 64.0443 66.4695 64.2358 66.5799 64.3899C66.6787 64.5225 66.819 64.6181 66.9785 64.6616C67.138 64.7051 67.3075 64.694 67.4599 64.6299L71.9999 61.9999V67.2199C71.9999 67.3158 72.0188 67.4107 72.0554 67.4993C72.0921 67.5879 72.1459 67.6683 72.2137 67.7361C72.2815 67.8039 72.362 67.8577 72.4505 67.8944C72.5391 67.9311 72.634 67.9499 72.7299 67.9499C72.8258 67.9499 72.9207 67.9311 73.0092 67.8944C73.0978 67.8577 73.1783 67.8039 73.2461 67.7361C73.3139 67.6683 73.3676 67.5879 73.4043 67.4993C73.441 67.4107 73.4599 67.3158 73.4599 67.2199V61.9999L77.9999 64.6599C78.1633 64.7609 78.3599 64.7933 78.5471 64.7503C78.7343 64.7072 78.897 64.5921 78.9999 64.4299C79.0999 64.2653 79.1308 64.0678 79.0859 63.8805C79.0409 63.6932 78.9237 63.5312 78.7599 63.4299L78.7299 63.3899Z" fill="#79CCF1"/>
<path opacity="0.8" d="M54.25 69.02C58.8339 69.02 62.5499 65.304 62.5499 60.72C62.5499 56.1361 58.8339 52.42 54.25 52.42C49.666 52.42 45.95 56.1361 45.95 60.72C45.95 65.304 49.666 69.02 54.25 69.02Z" fill="white"/>
<path d="M60.24 63.3899L55.74 60.7799L60.27 58.1599C60.3586 58.1173 60.4379 58.0575 60.5031 57.9839C60.5683 57.9103 60.6182 57.8244 60.6498 57.7313C60.6815 57.6382 60.6943 57.5397 60.6874 57.4416C60.6806 57.3435 60.6543 57.2478 60.61 57.1599C60.5683 57.0705 60.5091 56.9902 60.4359 56.924C60.3627 56.8577 60.277 56.8068 60.1838 56.7742C60.0906 56.7416 59.9918 56.7279 59.8933 56.7341C59.7947 56.7402 59.6984 56.766 59.61 56.8099L55 59.3899V54.1699C55 53.9763 54.9231 53.7907 54.7862 53.6538C54.6493 53.5169 54.4636 53.4399 54.27 53.4399C54.0764 53.4399 53.8907 53.5169 53.7538 53.6538C53.6169 53.7907 53.54 53.9763 53.54 54.1699V59.3899L49.01 56.7699C48.92 56.7254 48.8218 56.7 48.7215 56.6952C48.6212 56.6904 48.521 56.7063 48.4272 56.7419C48.3333 56.7776 48.2478 56.8322 48.176 56.9025C48.1043 56.9727 48.0477 57.0569 48.01 57.1499C47.9422 57.3018 47.9291 57.4724 47.9729 57.6328C48.0166 57.7932 48.1145 57.9335 48.25 58.0299L52.8 60.6599L48.27 63.2799C48.117 63.392 48.0144 63.5598 47.9845 63.7471C47.9545 63.9343 47.9996 64.1258 48.11 64.2799C48.2088 64.4125 48.3491 64.5081 48.5086 64.5516C48.6681 64.5951 48.8376 64.584 48.99 64.5199L53.52 61.8999V67.1199C53.52 67.3136 53.5969 67.4992 53.7338 67.6361C53.8707 67.773 54.0564 67.8499 54.25 67.8499C54.4436 67.8499 54.6293 67.773 54.7662 67.6361C54.9031 67.4992 54.98 67.3136 54.98 67.1199V61.9999L59.51 64.6199C59.6734 64.7209 59.87 64.7533 60.0572 64.7103C60.2444 64.6672 60.4071 64.5521 60.51 64.3899C60.5587 64.3072 60.5906 64.2157 60.6038 64.1207C60.6171 64.0256 60.6115 63.9289 60.5874 63.836C60.5632 63.7431 60.521 63.6559 60.4631 63.5794C60.4052 63.5029 60.3328 63.4385 60.25 63.3899H60.24Z" fill="#79CCF1"/>
<path opacity="0.8" d="M35.7099 69.02C40.2939 69.02 44.0099 65.304 44.0099 60.72C44.0099 56.1361 40.2939 52.42 35.7099 52.42C31.1259 52.42 27.4099 56.1361 27.4099 60.72C27.4099 65.304 31.1259 69.02 35.7099 69.02Z" fill="white"/>
<path d="M41.6799 63.3899L37.1299 60.7799L41.6599 58.1599C41.7486 58.1173 41.8278 58.0575 41.893 57.9839C41.9582 57.9103 42.0081 57.8244 42.0398 57.7313C42.0714 57.6382 42.0842 57.5397 42.0774 57.4416C42.0705 57.3435 42.0442 57.2478 41.9999 57.1599C41.9582 57.0705 41.899 56.9902 41.8258 56.924C41.7526 56.8577 41.6669 56.8068 41.5737 56.7742C41.4805 56.7416 41.3818 56.7279 41.2832 56.7341C41.1847 56.7402 41.0884 56.766 40.9999 56.8099L36.4399 59.3699V54.1699C36.4399 53.9763 36.363 53.7907 36.2261 53.6538C36.0892 53.5169 35.9036 53.4399 35.7099 53.4399C35.5163 53.4399 35.3307 53.5169 35.1938 53.6538C35.0569 53.7907 34.9799 53.9763 34.9799 54.1699V59.3899L30.4499 56.7699C30.3599 56.7254 30.2617 56.7 30.1614 56.6952C30.0612 56.6904 29.961 56.7063 29.8671 56.7419C29.7733 56.7776 29.6878 56.8322 29.616 56.9025C29.5442 56.9727 29.4877 57.0569 29.4499 57.1499C29.3822 57.3018 29.3691 57.4724 29.4128 57.6328C29.4566 57.7932 29.5545 57.9335 29.6899 58.0299L34.2199 60.6499L29.6899 63.2699C29.537 63.382 29.4344 63.5498 29.4044 63.7371C29.3745 63.9243 29.4196 64.1158 29.5299 64.2699C29.6287 64.4025 29.7691 64.4982 29.9286 64.5417C30.0881 64.5852 30.2575 64.574 30.4099 64.5099L34.8799 61.9999V67.2199C34.8799 67.4136 34.9569 67.5992 35.0938 67.7361C35.2307 67.873 35.4163 67.9499 35.6099 67.9499C35.8036 67.9499 35.9892 67.873 36.1261 67.7361C36.263 67.5992 36.3399 67.4136 36.3399 67.2199V61.9999L40.8799 64.5999C41.0434 64.7009 41.24 64.7333 41.4272 64.6903C41.6144 64.6472 41.777 64.5321 41.8799 64.3699C41.9843 64.213 42.0248 64.0221 41.9932 63.8362C41.9616 63.6504 41.8603 63.4836 41.7099 63.3699L41.6799 63.3899Z" fill="#79CCF1"/>
</svg>
