<svg width="86" height="86" viewBox="0 0 86 86" fill="none" xmlns="http://www.w3.org/2000/svg">
<path opacity="0.51" d="M42.9998 70.4441C57.4036 70.4441 69.0802 58.7675 69.0802 44.3637C69.0802 29.9599 57.4036 18.2833 42.9998 18.2833C28.596 18.2833 16.9194 29.9599 16.9194 44.3637C16.9194 58.7675 28.596 70.4441 42.9998 70.4441Z" fill="#EEEB61"/>
<path d="M43 64.3075C54.0146 64.3075 62.9438 55.3783 62.9438 44.3637C62.9438 33.349 54.0146 24.4199 43 24.4199C31.9853 24.4199 23.0562 33.349 23.0562 44.3637C23.0562 55.3783 31.9853 64.3075 43 64.3075Z" fill="#F5B21A" stroke="#FDE901" stroke-width="0.999918" stroke-miterlimit="5.8658"/>
<g opacity="0.9">
<path d="M12.9988 36.0111H54.4206C55.2729 36.0111 56.1252 36.693 56.1252 37.7157V40.2726C56.1252 41.1249 55.4433 41.9772 54.4206 41.9772H12.9988C12.1465 41.9772 11.2942 41.2954 11.2942 40.2726V37.7157C11.2942 36.693 12.1465 36.0111 12.9988 36.0111Z" fill="#F4F4F4" stroke="#CAD9E8" stroke-width="3.4092" stroke-miterlimit="10"/>
<path d="M31.5789 47.7729H73.0006C73.8529 47.7729 74.7052 48.4547 74.7052 49.4775V52.0344C74.7052 52.8867 74.0234 53.739 73.0006 53.739H31.5789C30.7266 53.739 29.8743 53.0571 29.8743 52.0344V49.4775C29.8743 48.6252 30.5561 47.7729 31.5789 47.7729Z" fill="#F4F4F4" stroke="#CAD9E8" stroke-width="3.4092" stroke-miterlimit="10"/>
</g>
</svg>
