<svg width="86" height="86" viewBox="0 0 86 86" fill="none" xmlns="http://www.w3.org/2000/svg">
<path opacity="0.51" d="M42.7857 63.752C55.4008 63.752 65.6274 53.5255 65.6274 40.9104C65.6274 28.2953 55.4008 18.0688 42.7857 18.0688C30.1706 18.0688 19.9441 28.2953 19.9441 40.9104C19.9441 53.5255 30.1706 63.752 42.7857 63.752Z" fill="#EFEB60"/>
<path d="M42.7857 58.4678C52.4823 58.4678 60.343 50.6071 60.343 40.9104C60.343 31.2137 52.4823 23.353 42.7857 23.353C33.089 23.353 25.2283 31.2137 25.2283 40.9104C25.2283 50.6071 33.089 58.4678 42.7857 58.4678Z" fill="#F6B31A" stroke="#FEEA02" stroke-width="1.00043" stroke-miterlimit="5.8685"/>
<path opacity="0.8" d="M12.6142 32.0465C14.1483 29.8305 16.5348 28.4668 19.2621 28.4668C23.0123 28.2963 26.4215 31.1942 27.1033 34.9443C29.4897 34.7738 31.5353 36.8193 31.5353 39.2058C31.5353 41.5922 29.6602 43.6377 27.2738 43.6377H13.1256C9.88683 43.8082 7.15947 41.2513 6.98901 38.0126C7.15947 34.9443 9.37545 32.3874 12.6142 32.0465Z" fill="white" stroke="#CAD9E8" stroke-width="3.4092" stroke-miterlimit="10"/>
</svg>
