<svg width="86" height="86" viewBox="0 0 86 86" fill="none" xmlns="http://www.w3.org/2000/svg">
<path opacity="0.18" d="M44.5342 68.184C58.938 68.184 70.6146 56.5074 70.6146 42.1036C70.6146 27.6998 58.938 16.0232 44.5342 16.0232C30.1304 16.0232 18.4539 27.6998 18.4539 42.1036C18.4539 56.5074 30.1304 68.184 44.5342 68.184Z" fill="#43444D"/>
<path d="M56.1255 45.6833C56.8074 45.6833 57.1483 45.3424 57.1483 44.6605V41.0809C57.1483 40.399 56.6369 40.0581 56.1255 40.0581C55.6142 40.0581 55.1028 40.5695 55.1028 41.0809V44.6605C55.2732 45.1719 55.6142 45.6833 56.1255 45.6833Z" fill="white"/>
<path d="M59.0234 42.7855C59.0234 42.1036 58.6825 41.7627 58.0006 41.7627H54.421C53.7391 41.7627 53.3982 42.2741 53.3982 42.7855C53.3982 43.2968 53.9096 43.8082 54.421 43.8082H58.0006C58.512 43.9787 59.0234 43.4673 59.0234 42.7855Z" fill="white"/>
<path d="M23.3973 28.4668C24.0791 28.4668 24.42 28.1259 24.42 27.444V23.8644C24.42 23.1825 23.9087 22.8416 23.3973 22.8416C22.8859 22.8416 22.3745 23.353 22.3745 23.8644V27.444C22.3745 27.9554 22.7154 28.4668 23.3973 28.4668Z" fill="white"/>
<path d="M26.1244 25.7394C26.1244 25.0576 25.7835 24.7167 25.1017 24.7167H21.522C20.8402 24.7167 20.4993 25.2281 20.4993 25.7394C20.4993 26.2508 21.0106 26.7622 21.522 26.7622H25.1017C25.6131 26.7622 26.1244 26.4213 26.1244 25.7394Z" fill="white"/>
<path d="M52.2049 25.7394C52.8867 25.7394 53.2277 25.3985 53.2277 24.7167V21.137C53.2277 20.4552 52.7163 20.1143 52.2049 20.1143C51.6935 20.1143 51.1821 20.6256 51.1821 21.137V24.7167C51.1821 25.2281 51.523 25.7394 52.2049 25.7394Z" fill="white"/>
<path d="M54.9326 23.0121C54.9326 22.3302 54.5916 21.9893 53.9098 21.9893H50.3301C49.6483 21.9893 49.3074 22.5007 49.3074 23.0121C49.3074 23.5235 49.8188 24.0348 50.3301 24.0348H53.9098C54.4212 24.0348 54.9326 23.5235 54.9326 23.0121Z" fill="white"/>
<path opacity="0.18" d="M43.1708 25.569C45.2163 25.0576 47.2618 24.8872 49.3073 25.2281C41.1253 30.5123 38.9093 41.4218 44.1935 49.6039C47.0914 54.0358 51.6938 56.9336 56.978 57.445C48.796 62.7293 37.8865 60.1724 32.6023 52.1608C27.318 43.9787 29.8749 33.0692 37.8865 27.785C39.4207 26.9327 41.1253 26.0804 43.1708 25.569Z" fill="#626472"/>
<path d="M39.7613 25.2281C41.8068 24.7167 43.8524 24.5462 45.8979 24.8871C37.7158 30.1714 35.4998 41.0808 40.7841 49.2629C43.6819 53.6949 48.2843 56.5927 53.5686 57.1041C45.3865 62.3883 34.4771 60.0019 29.3633 51.9903C24.079 43.8082 26.6359 32.8988 34.6475 27.6145C36.1817 26.5917 38.0567 25.7394 39.7613 25.2281Z" fill="#FDFCE9"/>
<path opacity="0.8" d="M12.8287 34.092C14.3629 31.876 16.7493 30.5123 19.4767 30.5123C23.2268 30.3419 26.636 33.2397 27.3178 36.9898C29.7043 36.8194 31.7498 38.8649 31.7498 41.2513C31.9203 43.6378 29.8747 45.6833 27.4883 45.6833H13.3401C10.1014 45.6833 7.54448 43.1264 7.37402 40.0581C7.54448 36.9898 9.76046 34.4329 12.8287 34.092Z" fill="white" stroke="#CAD9E8" stroke-width="3.4092" stroke-miterlimit="10"/>
</svg>
