<svg width="86" height="86" viewBox="0 0 86 86" fill="none" xmlns="http://www.w3.org/2000/svg">
<path opacity="0.51" d="M42.8294 64.4779C55.4445 64.4779 65.6711 54.2514 65.6711 41.6363C65.6711 29.0212 55.4445 18.7946 42.8294 18.7946C30.2143 18.7946 19.9878 29.0212 19.9878 41.6363C19.9878 54.2514 30.2143 64.4779 42.8294 64.4779Z" fill="#EEEB61"/>
<path d="M42.8295 59.0232C52.4321 59.0232 60.2165 51.2388 60.2165 41.6363C60.2165 32.0338 52.4321 24.2494 42.8295 24.2494C33.227 24.2494 25.4426 32.0338 25.4426 41.6363C25.4426 51.2388 33.227 59.0232 42.8295 59.0232Z" fill="#F5B21A" stroke="#FDE901" stroke-width="0.999918" stroke-miterlimit="5.8658"/>
<path opacity="0.8" d="M68.7394 45.5569C64.4779 38.5681 55.2731 36.5226 48.4547 40.7841C44.7045 43 42.3181 46.7502 41.6363 51.0117C36.8634 51.523 33.4542 55.6141 33.9656 60.387C34.3065 64.478 37.7157 67.7167 41.8067 68.0577H67.5462C73.8532 67.5463 78.4556 62.262 78.1147 55.955C77.6033 50.6707 73.8532 46.4092 68.7394 45.5569Z" fill="white" stroke="#CAD9E8" stroke-width="3.4092" stroke-miterlimit="10"/>
<path opacity="0.8" d="M12.6579 32.9429C14.192 30.7269 16.7489 29.3632 19.4763 29.3632C23.2264 29.3632 26.6356 32.0905 27.3174 35.8407C29.7039 35.8407 31.7494 37.7157 31.9199 40.1022C31.9199 42.4886 30.0448 44.5341 27.6584 44.7046H13.3397C10.101 44.7046 7.37363 42.1477 7.20317 38.909C7.03271 35.8407 9.41915 33.1133 12.6579 32.9429Z" fill="white" stroke="#CAD9E8" stroke-width="3.4092" stroke-miterlimit="10"/>
</svg>
