<svg width="86" height="86" viewBox="0 0 86 86" fill="none" xmlns="http://www.w3.org/2000/svg">
<path d="M40.8 69.2L45.7001 55.1C45.8001 54.8 46.1001 54.7 46.4001 54.8L47.2001 55C47.5001 55 47.6 55.3 47.6 55.5L42.7001 69.6C42.6001 69.9 42.3 70 42 69.9L41.2001 69.7C40.9001 69.7 40.8 69.4 40.8 69.2Z" fill="#79CCF1"/>
<path d="M52.9999 69.2L57.8999 55.1C57.9999 54.8 58.2999 54.7 58.5999 54.8L59.3999 55C59.6999 55 59.7999 55.3 59.7999 55.5L54.8999 69.6C54.7999 69.9 54.4999 70 54.1999 69.9L53.3999 69.7C53.0999 69.7 52.8999 69.4 52.9999 69.2Z" fill="#79CCF1"/>
<path d="M29.2999 69.2L34.1999 55.1C34.2999 54.8 34.5999 54.7 34.8999 54.8L35.6999 55C35.9999 55 36.0999 55.3 36.0999 55.5L31.1999 69.6C31.0999 69.9 30.7999 70 30.4999 69.9L29.6999 69.7C29.3999 69.7 29.1999 69.4 29.2999 69.2Z" fill="#79CCF1"/>
<path d="M64.6001 69.2L69.5001 55.1C69.6001 54.8 69.9001 54.7 70.2001 54.8L71.0001 55C71.3001 55 71.4001 55.3 71.4001 55.5L66.5001 69.5C66.4001 69.8 66.1001 69.9 65.8001 69.8L65.0001 69.7C64.7001 69.7 64.6001 69.4 64.6001 69.2Z" fill="#79CCF1"/>
<path d="M46.8 69.2L51.8 55.1C51.9 54.8 52.2 54.7 52.5 54.8L53.3 55C53.6 55 53.7001 55.3 53.7001 55.5L48.8 69.6C48.7 69.9 48.4 70 48.1 69.9L47.3 69.7C47 69.7 46.8 69.5 46.8 69.2Z" fill="white"/>
<path d="M58.9999 69.2L63.8999 55.1C63.9999 54.8 64.2999 54.7 64.5999 54.8L65.3999 55C65.6999 55 65.7999 55.3 65.7999 55.5L60.7999 69.6C60.6999 69.9 60.3999 70 60.0999 69.9L59.2999 69.7C58.9999 69.7 58.8999 69.4 58.9999 69.2Z" fill="white"/>
<path d="M35.2999 69.2L40.1999 55.1C40.2999 54.8 40.5999 54.7 40.8999 54.8L41.6999 55C41.9999 55 42.0999 55.3 42.0999 55.5L37.1999 69.6C37.0999 69.9 36.7999 70 36.4999 69.9L35.6999 69.7C35.3999 69.7 35.1999 69.4 35.2999 69.2Z" fill="white"/>
<path d="M70.6001 69.2L75.5001 55.1C75.6001 54.8 75.9001 54.7 76.2001 54.8L77.0001 55C77.3001 55 77.4001 55.3 77.4001 55.5L72.5001 69.6C72.4001 69.9 72.1001 70 71.8001 69.9L71.0001 69.7C70.7001 69.7 70.6001 69.4 70.6001 69.2Z" fill="white"/>
<g opacity="0.3">
<path d="M68.8998 31.5C64.5998 24.6 55.4998 22.5 48.4998 26.8C45.0998 29 42.6998 32.4 41.8998 36.4C44.6998 36.7 47.0998 38.2 48.4998 40.6L47.3998 41.2C45.3998 37.8 41.5998 37.4 38.8998 37.5C34.4998 39.2 32.2998 44.1 33.9998 48.5C35.2998 51.8 38.3998 54 41.8998 54H67.5998C73.8998 53.7 78.6998 48.3 78.3998 42.1C78.1998 36.8 74.1998 32.4 68.8998 31.5Z" fill="#231F20"/>
<path d="M33.1999 25.6C32.3999 21.1 28.3999 17.9 23.8999 18C20.9999 18 18.1999 19.3 16.3999 21.6C18.3999 21.9 20.8999 22.8 21.9999 25.2L20.7999 25.7C19.3999 22.7 14.7999 22.6 14.0999 22.6C11.2999 23.5 9.3999 26.1 9.3999 29.1C9.4999 33 12.6999 36.1 16.5999 36H32.9999C35.8999 36 38.1999 33.7 38.2999 30.9C38.2999 28 35.9999 25.6 33.1999 25.6Z" fill="#231F20"/>
</g>
<path d="M66.3001 28.9C62.0001 21.9 52.9001 19.8 46.0001 24.1C42.5001 26.3 40.0001 29.8 39.2001 33.9C42.0001 34.2 44.4001 35.7 45.8001 38.1L44.7001 38.7C42.7001 35.3 38.9001 34.9 36.2001 35C31.8001 36.7 29.6001 41.6 31.3001 46C32.6001 49.3 35.7001 51.5 39.2001 51.5H65.0001C71.3001 51.3 76.2001 46 76.0001 39.7C75.8001 34.3 71.7001 29.7 66.3001 28.9Z" fill="#D8D9D8"/>
<path d="M30.5 23C29.7 18.5 25.8 15.3 21.2 15.4C18.3 15.4 15.5 16.7 13.7 19C15.7 19.3 18.2 20.2 19.3 22.6L18.1 23.1C16.7 20.1 12.1 20 11.4 20C8.59995 20.9 6.69995 23.5 6.69995 26.5C6.79995 30.4 9.99995 33.5 13.9 33.4H30.2999C33.1999 33.4 35.4999 31.1 35.5999 28.3C35.6999 25.3 33.4 23 30.5 23Z" fill="#D8D9D8"/>
<path d="M52.4001 38.2H60.1001L57.8001 44.7H61.8001L51.1001 65.2L53.5001 50.1H50.1001L52.4001 38.2Z" fill="#FDDA00"/>
<path d="M50.8 36.7H58.6L56.3 43.1H60.3L49.5 63.7L52 48.6H48.5L50.8 36.7Z" fill="#F47A20"/>
</svg>
